
<svg xmlns="http://www.w3.org/2000/svg" version="1.1" xmlns:xlink="http://www.w3.org/1999/xlink" preserveAspectRatio="none" x="0px" y="0px" width="50px" height="50px" viewBox="0 0 50 50">
<defs>
<g id="Layer0_0_MEMBER_0_FILL">
<path fill="#77A944" stroke="none" d="
M 191.6 350.45
L 191.6 363.3
Q 191.6 372.35 200.65 372.35
L 213.5 372.35
Q 222.6 372.35 222.6 363.3
L 222.6 350.45
Q 222.6 341.35 213.5 341.35
L 200.65 341.35
Q 191.6 341.35 191.6 350.45 Z"/>
</g>

<g id="Layer0_0_MEMBER_1_FILL">
<path fill="#5A872B" stroke="none" d="
M 143.95 354.55
L 132.55 354.55
Q 124.5 354.55 124.5 362.6
L 124.5 374
Q 124.5 382.05 132.55 382.05
L 143.95 382.05
Q 152 382.05 152 374
L 152 362.6
Q 152 354.55 143.95 354.55 Z"/>
</g>

<g id="Layer0_0_MEMBER_2_FILL">
<path fill="#FFFFFF" stroke="none" d="
M 343.15 223.4
L 343.1 223.4
Q 339.6 223.1 336.8 225.3
L 336.75 225.3
Q 334.05 227.45 333.6 231
L 333.55 231.05
Q 333.15 234.6 335.35 237.45 337.6 240.2 341.2 240.55 344 240.8 346.25 239.6
L 350.05 244.35
Q 350.4 244.75 351 244.9 351.6 244.95 352.1 244.6 352.55 244.2 352.65 243.6 352.7 242.95 352.35 242.5
L 348.6 237.7
Q 350.4 235.7 350.7 233
L 350.7 232.9
Q 351.05 229.4 348.9 226.7 346.65 223.85 343.15 223.4
M 336.55 231.35
Q 336.8 229.05 338.65 227.6 340.5 226.15 342.8 226.35 345.1 226.65 346.55 228.5 348 230.3 347.75 232.6 347.5 234.95 345.65 236.35
L 345.65 236.45 345.6 236.45
Q 343.8 237.85 341.55 237.55
L 341.5 237.55
Q 339.1 237.35 337.7 235.6 336.2 233.7 336.55 231.35
M 342.1 228.3
Q 341.7 228.3 341.4 228.6 341.1 228.9 341.1 229.3
L 341.1 231.15 339.3 231.15
Q 338.85 231.15 338.6 231.4 338.3 231.7 338.3 232.1 338.3 232.55 338.6 232.8 338.85 233.1 339.3 233.1
L 341.1 233.1 341.1 235
Q 341.1 235.35 341.4 235.7 341.7 236 342.1 236 342.5 236 342.8 235.7 343.1 235.35 343.1 235
L 343.1 233.1 345 233.1
Q 345.35 233.1 345.65 232.8 346 232.55 346 232.1 346 231.7 345.65 231.4 345.35 231.15 345 231.15
L 343.1 231.15 343.1 229.3
Q 343.1 228.9 342.8 228.6 342.5 228.3 342.1 228.3 Z"/>
</g>
</defs>

<g transform="matrix( 1.5674591064453125, 0, 0, 1.5689697265625, -300.25,-535.55) ">
<use xlink:href="#Layer0_0_MEMBER_0_FILL"/>
</g>

<g transform="matrix( 1.7669219970703125, 0, 0, 1.768646240234375, -218.6,-625.85) ">
<use xlink:href="#Layer0_0_MEMBER_1_FILL"/>
</g>

<g transform="matrix( 1.5674591064453125, 0, 0, 1.5689697265625, -511.25,-340.15) ">
<use xlink:href="#Layer0_0_MEMBER_2_FILL"/>
</g>
</svg>
