
<svg xmlns="http://www.w3.org/2000/svg" version="1.1" xmlns:xlink="http://www.w3.org/1999/xlink" preserveAspectRatio="none" x="0px" y="0px" width="50px" height="50px" viewBox="0 0 50 50">
<defs>
<g id="Layer1_0_MEMBER_0_FILL">
<path fill="#77A944" stroke="none" d="
M 339.2 363.45
Q 339.2 372.5 348.25 372.5
L 376.1 372.5
Q 385.2 372.5 385.2 363.45
L 385.2 350.6
Q 385.2 341.5 376.1 341.5
L 348.25 341.5
Q 339.2 341.5 339.2 350.6
L 339.2 363.45 Z"/>
</g>

<g id="Layer1_0_MEMBER_1_FILL">
<path fill="#FFFFFF" stroke="none" d="
M 339.2 363.45
Q 339.2 372.5 348.25 372.5
L 376.1 372.5
Q 385.2 372.5 385.2 363.45
L 385.2 350.6
Q 385.2 341.5 376.1 341.5
L 348.25 341.5
Q 339.2 341.5 339.2 350.6
L 339.2 363.45 Z"/>
</g>

<g id="Layer0_0_FILL">
<path fill="#669C30" stroke="none" d="
M 44.75 18.75
Q 45.8 16.05 46.15 13.5 46.25 12.15 44.65 11.65 42.8 11.55 42.45 12.85 41.5 18.25 38.6 24.05 38.05 25.35 39.05 26.4 40.45 27.2 41.25 26.05
L 41.25 37.75
Q 41.4 39.5 43 39.6 44.65 39.5 44.75 37.75
L 44.75 18.75
M 49.4 19.9
Q 47.75 20.35 47.9 22 48.1 23.35 48.7 25.9 49.6 30.8 49.85 32.2 50.2 33.55 51.7 33.45 53.2 33.2 53.35 31.85 53.2 29.95 51.45 21.4 51 19.8 49.4 19.9
M 65.75 16.75
Q 65.6 15.15 64 15.05
L 58.2 15.05
Q 58.9 13.65 55.65 11.45 52.65 11.2 53.35 13.85 53.55 14.35 54.25 15.05
L 47.9 15.05
Q 46.25 15.15 46.15 16.75 46.25 18.4 47.9 18.5
L 64.1 18.5
Q 65.6 18.4 65.75 16.75
M 63.2 21.65
Q 63.2 20.25 61.65 20 59.95 19.9 59.6 21.15 59.1 26.5 57.15 34.75
L 47.2 34.75
Q 45.55 34.85 45.35 36.25 45.45 37.85 47.05 37.95
L 64.55 37.95
Q 65.95 37.85 65.95 36.25 65.85 34.85 64.35 34.75
L 60.95 34.75
Q 63.2 25.1 63.2 21.65
M 33.75 24.4
L 33.75 19.55
Q 33.75 17 31.1 17
L 15 17 15.8 16.2 34.1 16.2
Q 35.5 16.05 35.6 14.55 35.5 13.05 34.1 12.95
L 17.9 12.95
Q 17.05 10.75 15.2 12 12.2 14.9 10 16.4 8.5 18.85 11.4 19.45 12.1 19.2 12.8 18.5
L 12.8 24.2
Q 12.65 27.1 15.1 26.95
L 15.55 26.95
Q 13.95 28.8 10.7 30.55 9.2 31.35 9.65 32.85 10.35 34.25 11.85 33.7 13.25 33 14.5 32.2 16.7 34.15 18.7 35.05 15.9 35.75 10.8 36 9.4 36.1 9.4 37.75 9.65 39.25 11.15 39.25 17.4 38.9 23.2 36.95 29.6 38.9 34.45 39.15 35.85 39.15 36.2 37.6 36.2 36.1 34.8 36 31.1 35.75 27.95 35.05 32 32.5 33.4 31.15 34.45 29.85 33.85 28.95 33.4 27.9 31.65 27.9
L 19.05 27.9 19.85 26.95 31.2 26.95
Q 34 27.2 33.75 24.4
M 30.4 23.25
L 30.4 24.2 16.15 24.2 16.15 23.25 30.4 23.25
M 30.4 19.9
L 30.4 20.8 16.15 20.8 16.15 19.9 30.4 19.9
M 28.1 31
Q 26 32.65 23.1 33.55 20.3 32.4 18.45 31
L 28.1 31 Z"/>
</g>
</defs>

<g transform="matrix( 1.069183349609375, 0, 0, 1.5673980712890625, -362.7,-534.8) ">
<use xlink:href="#Layer1_0_MEMBER_0_FILL"/>
</g>

<g transform="matrix( 1.069183349609375, 0, 0, 1.5673980712890625, -361.85,-533.85) ">
<use xlink:href="#Layer1_0_MEMBER_1_FILL"/>
</g>

<g transform="matrix( 0.682159423828125, 0, 0, 1, -0.25,0) ">
<use xlink:href="#Layer0_0_FILL"/>
</g>
</svg>
