
<svg xmlns="http://www.w3.org/2000/svg" version="1.1" xmlns:xlink="http://www.w3.org/1999/xlink" preserveAspectRatio="none" x="0px" y="0px" width="50px" height="50px" viewBox="0 0 50 50">
<defs>
<g id="Layer0_0_MEMBER_0_FILL">
<path fill="#77A944" stroke="none" d="
M 339.2 350.6
L 339.2 363.45
Q 339.2 372.5 348.25 372.5
L 376.1 372.5
Q 385.2 372.5 385.2 363.45
L 385.2 350.6
Q 385.2 341.5 376.1 341.5
L 348.25 341.5
Q 339.2 341.5 339.2 350.6 Z"/>
</g>

<g id="Layer0_0_MEMBER_1_FILL">
<path fill="#5A872B" stroke="none" d="
M 339.2 363.45
Q 339.2 372.5 348.25 372.5
L 376.1 372.5
Q 385.2 372.5 385.2 363.45
L 385.2 350.6
Q 385.2 341.5 376.1 341.5
L 348.25 341.5
Q 339.2 341.5 339.2 350.6
L 339.2 363.45 Z"/>
</g>

<g id="Layer0_0_MEMBER_2_FILL">
<path fill="#FFFFFF" stroke="none" d="
M 255.55 19.1
Q 256.55 16.5 256.9 14.05 257 12.7 255.4 12.25 253.65 12.15 253.3 13.4 252.4 18.65 249.6 24.25 249.05 25.45 250.05 26.45 251.4 27.25 252.2 26.15
L 252.2 37.45
Q 252.3 39.1 253.85 39.2 255.4 39.1 255.55 37.45
L 255.55 19.1
M 262 21.65
Q 261.55 20.1 260 20.2 258.45 20.65 258.55 22.2 258.75 23.55 259.35 26 260.25 30.7 260.45 32.05 260.8 33.4 262.25 33.3 263.7 33.05 263.8 31.75 263.7 29.95 262 21.65
M 273.3 21.9
Q 273.3 20.55 271.85 20.3 270.15 20.2 269.85 21.45 269.4 26.6 267.5 34.5
L 257.9 34.5
Q 256.3 34.65 256.1 35.95 256.2 37.55 257.75 37.65
L 274.65 37.65
Q 275.95 37.55 275.95 35.95 275.85 34.65 274.4 34.5
L 271.15 34.5
Q 273.3 25.25 273.3 21.9
M 274.2 18.85
Q 275.65 18.75 275.75 17.2 275.65 15.65 274.1 15.5
L 268.5 15.5
Q 269.15 14.15 266.05 12.05 263.15 11.85 263.8 14.4 264 14.85 264.7 15.5
L 258.55 15.5
Q 257 15.65 256.9 17.2 257 18.75 258.55 18.85
L 274.2 18.85
M 245.6 38.75
Q 246.95 38.75 247.25 37.3 247.25 35.85 245.9 35.75 242.35 35.55 239.35 34.85 243.25 32.4 244.6 31.05 245.6 29.85 245.05 28.95 244.6 27.9 242.9 27.9
L 230.75 27.9 231.5 27.05 242.45 27.05
Q 245.15 27.25 244.9 24.55
L 244.9 19.9
Q 244.9 17.4 242.35 17.4
L 226.8 17.4 227.6 16.65 245.25 16.65
Q 246.6 16.5 246.7 15.05 246.6 13.6 245.25 13.5
L 229.6 13.5
Q 228.85 11.4 227.05 12.6 224.15 15.4 222 16.85 220.55 19.2 223.35 19.75 224.05 19.55 224.7 18.85
L 224.7 24.35
Q 224.6 27.15 226.95 27.05
L 227.4 27.05
Q 225.8 28.8 222.7 30.5 221.25 31.3 221.7 32.75 222.35 34.05 223.8 33.5 225.15 32.85 226.4 32.05 228.5 33.95 230.4 34.85 227.7 35.55 222.8 35.75 221.45 35.85 221.45 37.45 221.7 38.9 223.15 38.9 229.15 38.55 234.75 36.65 240.9 38.55 245.6 38.75
M 227.95 24.35
L 227.95 23.45 241.7 23.45 241.7 24.35 227.95 24.35
M 227.95 21.1
L 227.95 20.2 241.7 20.2 241.7 21.1 227.95 21.1
M 239.45 30.95
Q 237.45 32.5 234.65 33.4 231.95 32.3 230.15 30.95
L 239.45 30.95 Z"/>
</g>
</defs>

<g transform="matrix( 1.0595703125, 0, 0, 1.5689697265625, -359.1,-535.3) ">
<use xlink:href="#Layer0_0_MEMBER_0_FILL"/>
</g>

<g transform="matrix( 1.0595703125, 0, 0, 1.5689697265625, -358.2,-534.4) ">
<use xlink:href="#Layer0_0_MEMBER_1_FILL"/>
</g>

<g transform="matrix( 0.67596435546875, 0, 0, 1, -141.85,0) ">
<use xlink:href="#Layer0_0_MEMBER_2_FILL"/>
</g>
</svg>
