
<svg xmlns="http://www.w3.org/2000/svg" version="1.1" xmlns:xlink="http://www.w3.org/1999/xlink" preserveAspectRatio="none" x="0px" y="0px" width="50px" height="50px" viewBox="0 0 50 50">
<defs>
<g id="Layer0_0_MEMBER_0_FILL">
<path fill="#77A944" stroke="none" d="
M 191.6 350.45
L 191.6 363.3
Q 191.6 372.35 200.65 372.35
L 213.5 372.35
Q 222.6 372.35 222.6 363.3
L 222.6 350.45
Q 222.6 341.35 213.5 341.35
L 200.65 341.35
Q 191.6 341.35 191.6 350.45 Z"/>
</g>

<g id="Layer0_0_MEMBER_1_FILL">
<path fill="#5A872B" stroke="none" d="
M 143.95 354.55
L 132.55 354.55
Q 124.5 354.55 124.5 362.6
L 124.5 374
Q 124.5 382.05 132.55 382.05
L 143.95 382.05
Q 152 382.05 152 374
L 152 362.6
Q 152 354.55 143.95 354.55 Z"/>
</g>

<g id="Layer0_0_MEMBER_2_FILL">
<path fill="#FFFFFF" stroke="none" d="
M 383.2 227.1
Q 383.05 226.85 382.9 226.7 380.65 223.85 377.15 223.4
L 377.1 223.4
Q 373.6 223.1 370.8 225.3
L 370.75 225.3
Q 368.05 227.45 367.6 231
L 367.55 231.05
Q 367.15 234.6 369.35 237.45 371.6 240.2 375.2 240.55 378 240.8 380.25 239.6
L 384.05 244.35
Q 384.4 244.75 385 244.9 385.6 244.95 386.1 244.6 386.55 244.2 386.65 243.6 386.7 242.95 386.35 242.5
L 382.6 237.7
Q 382.9 237.35 383.2 237 384.45 235.25 384.7 233
L 384.7 232.9
Q 385.05 229.7 383.2 227.1
M 380.55 228.5
Q 382 230.3 381.75 232.6 381.5 234.95 379.65 236.35
L 379.65 236.45 379.6 236.45
Q 377.8 237.85 375.55 237.55
L 375.5 237.55
Q 373.1 237.35 371.7 235.6 370.2 233.7 370.55 231.35 370.8 229.05 372.65 227.6 374.5 226.15 376.8 226.35 379.1 226.65 380.55 228.5
M 379.6 231.4
Q 379.3 231.15 378.95 231.15
L 373.25 231.15
Q 372.85 231.15 372.55 231.4 372.25 231.7 372.25 232.1 372.25 232.55 372.55 232.8 372.85 233.1 373.25 233.1
L 378.95 233.1
Q 379.3 233.1 379.6 232.8 379.95 232.55 379.95 232.1 379.95 231.7 379.6 231.4 Z"/>
</g>
</defs>

<g transform="matrix( 1.5674591064453125, 0, 0, 1.5689697265625, -300.45,-535.55) ">
<use xlink:href="#Layer0_0_MEMBER_0_FILL"/>
</g>

<g transform="matrix( 1.7669219970703125, 0, 0, 1.768646240234375, -218.75,-625.85) ">
<use xlink:href="#Layer0_0_MEMBER_1_FILL"/>
</g>

<g transform="matrix( 1.5674591064453125, 0, 0, 1.5689697265625, -563.85,-340.15) ">
<use xlink:href="#Layer0_0_MEMBER_2_FILL"/>
</g>
</svg>
