
<svg xmlns="http://www.w3.org/2000/svg" version="1.1" xmlns:xlink="http://www.w3.org/1999/xlink" preserveAspectRatio="none" x="0px" y="0px" width="50px" height="50px" viewBox="0 0 50 50">
<defs>
<g id="Layer1_0_MEMBER_0_MEMBER_0_FILL">
<path fill="#77A944" stroke="none" d="
M 191.6 363.3
Q 191.6 372.35 200.65 372.35
L 213.5 372.35
Q 222.6 372.35 222.6 363.3
L 222.6 350.45
Q 222.6 341.35 213.5 341.35
L 200.65 341.35
Q 191.6 341.35 191.6 350.45
L 191.6 363.3 Z"/>
</g>

<g id="Layer1_0_MEMBER_0_MEMBER_1_FILL">
<path fill="#FFFFFF" stroke="none" d="
M 143.95 354.55
L 132.55 354.55
Q 124.5 354.55 124.5 362.6
L 124.5 374
Q 124.5 382.05 132.55 382.05
L 143.95 382.05
Q 152 382.05 152 374
L 152 362.6
Q 152 354.55 143.95 354.55 Z"/>
</g>

<g id="Layer0_0_FILL">
<path fill="#669C30" stroke="none" d="
M 87.55 10.35
Q 86.25 9.7 84.8 10.25 83.65 10.75 83.2 13.55 82.8 16 83.1 18.5 83.4 20.6 83.25 21.55 83.1 22.4 82.45 22.5 81.9 22.55 81.7 22.2 81.45 21.8 81.15 20.75 81 19.9 80.45 17.15 79.95 14.2 79.8 13.15 79.5 11.5 78.45 10.6 77.3 9.4 75.65 9.9 75.6248046875 9.908984375 75.6 9.9 74.0935546875 10.476171875 73.7 12.05 73.45 13.4 73.95 15.7 74.234765625 17.028515625 75.6 19.4 75.6734375 19.519921875 75.75 19.65 77.3 22.35 77.55 23.45 77.85 24.4 77.4 24.85 76.9 25.3 76.3 25.1 75.9681640625 25.0396484375 75.6 24.6 75.3580078125 24.30625 75.1 23.85 74.5 22.75 73.55 20.55 71.6 15.75 69.75 15.05 68.75 14.75 67.25 15.7 65.8 16.6 65.25 18.05 64.75 19.2 66.85 21.85 68.15 23.45 69.75 24.9 70.95 25.85 73.45 29.4 74.15 30.25 74 31.1 73.95 31.9 73.15 31.9 72.75 31.9 72.6 31.8 72.2 31.65 71.2 31.2 70 30.55 68.45 30.55 66.55 30.5 65 31.2 63.6 31.8 62.8 33.4 62.5 34.25 62.35 34.9 62.15 37.4 63.9 38.1 65.45 38.7 67.65 37.8 69.3 37.05 71.35 37.3 73.3 37.7 73.7 37.8 74.15 37.85 74.5 38.3 74.65 38.55 75.35 39.8 75.4693359375 39.998828125 75.6 40.15 76.2908203125 41.17734375 77.3 41.85 78.15 42.4 78.85 42.5 79.5 42.55 79.65 42.8 79.75 43.05 79.8 43.65 79.9 44.1 80.45 44.45 80.9 44.65 81.55 44.65 84.05 44.9 86.95 42.95 87.8 42.4 88.75 41.45 89.7 40.45 90.25 39.5 91.15 37.95 90.4 36.75 90.3 36.7 90 36.15 89.85 35.95 89.9 35.9 90.4 35.1 90.45 33.3 90.55 31.75 90.3 30.55 90.15 29.7 90.4 29.1 90.95 28.2 91.35 27.5 92.05 26.5 93.7 24.9 95.15 23.35 96.25 21.85 96.95 20.95 97.15 19.6 97.3 17.8 95.8 16.95 94.3 16 92.75 17.25 91.65 18.1 90.8 19.6 90.4 20.3 89.6 21.85 88.8 23.05 88.2 22.9 87.55 22.55 87.4 22.1 87.25 21.8 87.5 21 88.35 18.6 88.8 16.95 89.6 14.05 89.2 12.25 88.9 10.9 87.55 10.35 Z"/>
</g>
</defs>

<g transform="matrix( 1.5674591064453125, 0, 0, 1.5673980712890625, -300.3,-535.05) ">
<use xlink:href="#Layer1_0_MEMBER_0_MEMBER_0_FILL"/>
</g>

<g transform="matrix( 1.7669219970703125, 0, 0, 1.7668609619140625, -218.65,-625.25) ">
<use xlink:href="#Layer1_0_MEMBER_0_MEMBER_1_FILL"/>
</g>

<g transform="matrix( 1, 0, 0, 1, -54.3,-0.6) ">
<use xlink:href="#Layer0_0_FILL"/>
</g>
</svg>
