
<svg xmlns="http://www.w3.org/2000/svg" version="1.1" xmlns:xlink="http://www.w3.org/1999/xlink" preserveAspectRatio="none" x="0px" y="0px" width="50px" height="50px" viewBox="0 0 50 50">
<defs>
<g id="Layer1_0_MEMBER_0_MEMBER_0_FILL">
<path fill="#77A944" stroke="none" d="
M 191.6 363.3
Q 191.6 372.35 200.65 372.35
L 213.5 372.35
Q 222.6 372.35 222.6 363.3
L 222.6 350.45
Q 222.6 341.35 213.5 341.35
L 200.65 341.35
Q 191.6 341.35 191.6 350.45
L 191.6 363.3 Z"/>
</g>

<g id="Layer1_0_MEMBER_0_MEMBER_1_FILL">
<path fill="#FFFFFF" stroke="none" d="
M 143.95 354.55
L 132.55 354.55
Q 124.5 354.55 124.5 362.6
L 124.5 374
Q 124.5 382.05 132.55 382.05
L 143.95 382.05
Q 152 382.05 152 374
L 152 362.6
Q 152 354.55 143.95 354.55 Z"/>
</g>

<g id="Layer0_0_FILL">
<path fill="#669C30" stroke="none" d="
M 35.85 23.75
Q 36.15 22.8 35.9 21.85 35.55 20.85 34.75 20.3
L 17.35 9.4
Q 16.3 8.8 15.3 9 14.3 9.1 13.6 10.05 12.8 10.8 12.9 11.9
L 13.9 32.35
Q 13.9 33.45 14.5 34.25 15.25 34.9 16.25 35.1 17.25 35.2 18.15 34.65
L 21.95 32.55 27.2 41.6
Q 27.9 42.95 29.2 43.25 30.65 43.65 31.85 42.95
L 34.75 41.3
Q 36 40.6 36.4 39.2 36.8 37.85 36 36.5
L 30.75 27.45 34.6 25.15
Q 35.45 24.7 35.85 23.75 Z"/>
</g>
</defs>

<g transform="matrix( 1.5674591064453125, 0, 0, 1.5673980712890625, -300.25,-535.05) ">
<use xlink:href="#Layer1_0_MEMBER_0_MEMBER_0_FILL"/>
</g>

<g transform="matrix( 1.7669219970703125, 0, 0, 1.7668609619140625, -218.6,-625.25) ">
<use xlink:href="#Layer1_0_MEMBER_0_MEMBER_1_FILL"/>
</g>

<g transform="matrix( 1, 0, 0, 1, 0,0) ">
<use xlink:href="#Layer0_0_FILL"/>
</g>
</svg>
