
<svg xmlns="http://www.w3.org/2000/svg" version="1.1" xmlns:xlink="http://www.w3.org/1999/xlink" preserveAspectRatio="none" x="0px" y="0px" width="50px" height="50px" viewBox="0 0 50 50">
<defs>
<g id="Layer1_0_MEMBER_0_MEMBER_0_FILL">
<path fill="#77A944" stroke="none" d="
M 191.6 363.3
Q 191.6 372.35 200.65 372.35
L 213.5 372.35
Q 222.6 372.35 222.6 363.3
L 222.6 350.45
Q 222.6 341.35 213.5 341.35
L 200.65 341.35
Q 191.6 341.35 191.6 350.45
L 191.6 363.3 Z"/>
</g>

<g id="Layer1_0_MEMBER_0_MEMBER_1_FILL">
<path fill="#FFFFFF" stroke="none" d="
M 143.95 354.55
L 132.55 354.55
Q 124.5 354.55 124.5 362.6
L 124.5 374
Q 124.5 382.05 132.55 382.05
L 143.95 382.05
Q 152 382.05 152 374
L 152 362.6
Q 152 354.55 143.95 354.55 Z"/>
</g>

<g id="Layer0_0_FILL">
<path fill="#669C30" stroke="none" d="
M 184.9 10.2
L 184.85 10.2
Q 179.25 9.65 174.85 13.15
L 174.8 13.15
Q 170.5 16.6 169.8 22.2
L 169.7 22.25
Q 169.05 27.9 172.6 32.35 176.15 36.85 181.85 37.3 186.25 37.8 189.85 35.8
L 195.8 43.35
Q 196.35 44.05 197.35 44.2 198.3 44.3 199.1 43.75 199.8 43.1 199.95 42.15 200.05 41.15 199.5 40.45
L 193.5 32.85
Q 194 32.3 194.45 31.65 196.4 28.9 196.9 25.3
L 196.9 25.25
Q 197.45 20.15 194.45 16 194.25 15.7 194 15.35 190.45 10.9 184.9 10.2
M 184.35 14.9
Q 187.95 15.3 190.3 18.25 192.6 21.15 192.2 24.75 191.8 28.45 188.9 30.7
L 188.9 30.8 188.8 30.8
Q 186 33.05 182.3 32.6
L 182.25 32.6
Q 178.5 32.3 176.3 29.45 173.95 26.5 174.4 22.8 174.85 19.1 177.75 16.85 180.65 14.5 184.35 14.9
M 188.8 22.9
Q 188.35 22.4 187.7 22.4
L 178.7 22.4
Q 178.1 22.4 177.6 22.9 177.15 23.35 177.15 24 177.15 24.6 177.6 25.1 178.1 25.55 178.7 25.55
L 187.7 25.55
Q 188.35 25.55 188.8 25.1 189.3 24.6 189.3 24 189.3 23.35 188.8 22.9 Z"/>
</g>
</defs>

<g transform="matrix( 1.5674591064453125, 0, 0, 1.5673980712890625, -300.4,-535.05) ">
<use xlink:href="#Layer1_0_MEMBER_0_MEMBER_0_FILL"/>
</g>

<g transform="matrix( 1.7669219970703125, 0, 0, 1.7668609619140625, -218.75,-625.25) ">
<use xlink:href="#Layer1_0_MEMBER_0_MEMBER_1_FILL"/>
</g>

<g transform="matrix( 1, 0, 0, 1, -157.5,0) ">
<use xlink:href="#Layer0_0_FILL"/>
</g>
</svg>
