
<svg xmlns="http://www.w3.org/2000/svg" version="1.1" xmlns:xlink="http://www.w3.org/1999/xlink" preserveAspectRatio="none" x="0px" y="0px" width="50px" height="50px" viewBox="0 0 50 50">
<defs>
<g id="Layer0_0_FILL">
<path fill="#77A944" stroke="none" d="
M 41.85 48.95
Q 49.85 46.3 49.85 35.6
L 49.85 15.45
Q 49.85 1.2 35.6 1.2
L 15.45 1.2
Q 1.25 1.2 1.25 15.45
L 1.25 35.6
Q 1.25 49.8 15.45 49.8
L 35.6 49.8
Q 37 49.8 38.35 49.65 40.3 49.45 41.85 48.95 Z"/>
</g>

<g id="Layer0_1_FILL">
<path fill="#5A872B" stroke="none" d="
M 191.6 350.45
L 191.6 363.3
Q 191.6 372.35 200.65 372.35
L 213.5 372.35
Q 222.6 372.35 222.6 363.3
L 222.6 350.45
Q 222.6 341.35 213.5 341.35
L 200.65 341.35
Q 191.6 341.35 191.6 350.45 Z"/>
</g>

<g id="Layer0_2_FILL">
<path fill="#FFFFFF" stroke="none" d="
M 278.75 234.3
L 281.2 232.85
Q 281.7 232.55 282 232 282.15 231.35 282.05 230.75 281.75 230.15 281.25 229.8
L 270.3 222.9
Q 269.65 222.5 269.05 222.65 268.35 222.7 267.9 223.3 267.4 223.8 267.45 224.45
L 268.15 237.45
Q 268.15 238.1 268.55 238.6 268.95 239 269.6 239.15 270.25 239.2 270.8 238.8
L 273.2 237.5 276.55 243.25
Q 277 244.1 277.75 244.25 278.7 244.55 279.45 244.1
L 281.25 243.05
Q 282.1 242.6 282.3 241.7 282.55 240.9 282.1 240.05
L 278.75 234.3 Z"/>
</g>
</defs>

<g transform="matrix( 1, 0, 0, 1, 0,0) ">
<use xlink:href="#Layer0_0_FILL"/>
</g>

<g transform="matrix( 1.5674591064453125, 0, 0, 1.5689697265625, -300.35,-535.55) ">
<use xlink:href="#Layer0_1_FILL"/>
</g>

<g transform="matrix( 1.5674591064453125, 0, 0, 1.5689697265625, -406.5,-340.15) ">
<use xlink:href="#Layer0_2_FILL"/>
</g>
</svg>
