
<svg xmlns="http://www.w3.org/2000/svg" version="1.1" xmlns:xlink="http://www.w3.org/1999/xlink" preserveAspectRatio="none" x="0px" y="0px" width="50px" height="50px" viewBox="0 0 50 50">
<defs>
<g id="Layer1_0_MEMBER_0_MEMBER_0_FILL">
<path fill="#77A944" stroke="none" d="
M 191.6 363.3
Q 191.6 372.35 200.65 372.35
L 213.5 372.35
Q 222.6 372.35 222.6 363.3
L 222.6 350.45
Q 222.6 341.35 213.5 341.35
L 200.65 341.35
Q 191.6 341.35 191.6 350.45
L 191.6 363.3 Z"/>
</g>

<g id="Layer1_0_MEMBER_0_MEMBER_1_FILL">
<path fill="#FFFFFF" stroke="none" d="
M 143.95 354.55
L 132.55 354.55
Q 124.5 354.55 124.5 362.6
L 124.5 374
Q 124.5 382.05 132.55 382.05
L 143.95 382.05
Q 152 382.05 152 374
L 152 362.6
Q 152 354.55 143.95 354.55 Z"/>
</g>

<g id="Layer0_0_FILL">
<path fill="#669C30" stroke="none" d="
M 131.6 10.2
L 131.55 10.2
Q 125.95 9.65 121.6 13.15
L 121.5 13.15
Q 117.2 16.6 116.5 22.2
L 116.4 22.25
Q 115.8 27.9 119.3 32.35 122.85 36.85 128.55 37.3 132.95 37.8 136.55 35.8
L 142.5 43.35
Q 143.05 44.05 144.05 44.2 145 44.3 145.8 43.75 146.5 43.1 146.65 42.15 146.75 41.15 146.2 40.45
L 140.25 32.85
Q 143.05 29.7 143.6 25.3
L 143.6 25.25
Q 144.15 19.75 140.7 15.35 137.15 10.9 131.6 10.2
M 124.5 16.85
Q 127.4 14.5 131.05 14.9 134.65 15.3 137 18.25 139.3 21.15 138.9 24.75 138.5 28.45 135.6 30.7
L 135.6 30.8 135.55 30.8
Q 132.7 33.05 129 32.6
L 128.95 32.6
Q 125.2 32.3 123 29.45 120.65 26.5 121.1 22.8 121.6 19.1 124.5 16.85
M 129.95 17.95
Q 129.35 17.95 128.85 18.4 128.4 18.9 128.4 19.5
L 128.4 22.4 125.5 22.4
Q 124.85 22.4 124.4 22.9 123.95 23.35 123.95 24 123.95 24.6 124.4 25.1 124.85 25.55 125.5 25.55
L 128.4 25.55 128.4 28.55
Q 128.4 29.15 128.85 29.65 129.35 30.1 129.95 30.1 130.6 30.1 131.05 29.65 131.55 29.15 131.55 28.55
L 131.55 25.55 134.5 25.55
Q 135.15 25.55 135.6 25.1 136.1 24.6 136.1 24 136.1 23.35 135.6 22.9 135.15 22.4 134.5 22.4
L 131.55 22.4 131.55 19.5
Q 131.55 18.9 131.05 18.4 130.6 17.95 129.95 17.95 Z"/>
</g>
</defs>

<g transform="matrix( 1.5674591064453125, 0, 0, 1.5673980712890625, -300.55,-535.05) ">
<use xlink:href="#Layer1_0_MEMBER_0_MEMBER_0_FILL"/>
</g>

<g transform="matrix( 1.7669219970703125, 0, 0, 1.7668609619140625, -218.85,-625.25) ">
<use xlink:href="#Layer1_0_MEMBER_0_MEMBER_1_FILL"/>
</g>

<g transform="matrix( 1, 0, 0, 1, -105.15,0) ">
<use xlink:href="#Layer0_0_FILL"/>
</g>
</svg>
