
<svg xmlns="http://www.w3.org/2000/svg" version="1.1" xmlns:xlink="http://www.w3.org/1999/xlink" preserveAspectRatio="none" x="0px" y="0px" width="50px" height="50px" viewBox="0 0 50 50">
<defs>
<g id="Layer0_0_FILL">
<path fill="#77A944" stroke="none" d="
M 53.7 35.6
Q 53.7 47.15 63.05 49.35 64.8064453125 49.709375 66.85 49.75
L 66.85 1.2
Q 53.7 1.7369140625 53.7 15.45
L 53.7 35.6
M 99.45 5.55
Q 98.450390625 4.3125 97.1 3.4
L 97.1 47.6
Q 97.278125 47.503125 97.45 47.4 102.3 43.85 102.3 35.6
L 102.3 15.45
Q 102.3 10.52578125 100.6 7.3 100.09765625 6.3515625 99.45 5.55 Z"/>
</g>

<g id="Layer0_0_MEMBER_0_FILL">
<path fill="#77A944" stroke="none" d="
M 97.1 47.6
L 97.1 3.4
Q 93.6923828125 1.2 88.05 1.2
L 67.9 1.2
Q 67.3650390625 1.2 66.85 1.2
L 66.85 49.75
Q 67.3658203125 49.8 67.9 49.8
L 88.05 49.8
Q 88.9 49.8 89.7 49.8 90.6 49.75 91.55 49.6 94.4 49.1 96.4 48 96.7607421875 47.803125 97.1 47.6 Z"/>
</g>

<g id="Layer0_0_MEMBER_0_MEMBER_0_FILL">
<path fill="#5A872B" stroke="none" d="
M 191.6 350.45
L 191.6 363.3
Q 191.6 372.35 200.65 372.35
L 213.5 372.35
Q 222.6 372.35 222.6 363.3
L 222.6 350.45
Q 222.6 341.35 213.5 341.35
L 200.65 341.35
Q 191.6 341.35 191.6 350.45 Z"/>
</g>

<g id="Layer0_0_MEMBER_0_MEMBER_1_FILL">
<path fill="#FFFFFF" stroke="none" d="
M 302.2 226.85
Q 301.25 227.45 300.9 228.35 300.6 229.1 301.9 230.75 302.7 231.75 303.75 232.7 304.5 233.3 306.1 235.55 306.55 236.1 306.4 236.6 306.35 237.1 305.85 237.1 305.65 237.1 305.55 237.05 305.3 237 304.65 236.65 303.9 236.25 302.9 236.25 301.75 236.2 300.75 236.65 299.85 237.05 299.35 238.05 299.15 238.6 299.1 239 298.95 240.6 300.05 241.05 301.05 241.45 302.4 240.8 303.45 240.4 304.75 240.55 306 240.75 306.25 240.8 306.55 240.9 306.75 241.15 306.8 241.3 307.25 242.1 307.75 242.9 308.55 243.4 309.05 243.75 309.5 243.8 309.9 243.85 310 244 310.05 244.15 310.1 244.55 310.15 244.85 310.5 245.05 310.8 245.15 311.2 245.15 312.75 245.35 314.6 244.1 315.15 243.75 315.75 243.15 316.3 242.5 316.65 241.95 317.25 240.95 316.75 240.2 316.7 240.15 316.55 239.75 316.45 239.7 316.5 239.65 316.75 239.15 316.8 238 316.9 237.05 316.7 236.25 316.65 235.7 316.75 235.3 317.1 234.8 317.4 234.35 317.8 233.7 318.9 232.7 319.8 231.7 320.5 230.75 320.95 230.2 321.05 229.35 321.15 228.2 320.2 227.65 319.25 227.1 318.25 227.85 317.55 228.4 317.05 229.35 316.75 229.8 316.25 230.75 315.75 231.55 315.4 231.4 315 231.2 314.9 230.9 314.8 230.75 314.95 230.25 315.5 228.7 315.75 227.65 316.25 225.8 316.05 224.7 315.8 223.85 315 223.5 314.15 223.1 313.25 223.45 312.55 223.75 312.2 225.55 312 227.1 312.15 228.65 312.35 230 312.25 230.6 312.15 231.15 311.75 231.2 311.45 231.2 311.25 231 311.15 230.75 310.95 230.1 310.8 229.55 310.5 227.8 310.2 225.9 310.1 225.3 309.9 224.25 309.25 223.65 308.55 222.9 307.5 223.2 306.5 223.55 306.25 224.6 306.1 225.4 306.35 226.85 306.6 227.75 307.55 229.4 308.55 231.1 308.65 231.75 308.85 232.35 308.55 232.65 308.25 233 307.85 232.8 307.55 232.75 307.15 232.05 306.75 231.3 306.15 229.9 304.9 226.9 303.75 226.45 303.15 226.25 302.2 226.85 Z"/>
</g>
</defs>

<g transform="matrix( 1, 0, 0, 1, -52.4,0) ">
<use xlink:href="#Layer0_0_FILL"/>
</g>

<g transform="matrix( 1, 0, 0, 1, -52.4,0) ">
<use xlink:href="#Layer0_0_MEMBER_0_FILL"/>
</g>

<g transform="matrix( 1.5674591064453125, 0, 0, 1.5689697265625, -300.35,-535.55) ">
<use xlink:href="#Layer0_0_MEMBER_0_MEMBER_0_FILL"/>
</g>

<g transform="matrix( 1.5674591064453125, 0, 0, 1.5689697265625, -458.9,-340.15) ">
<use xlink:href="#Layer0_0_MEMBER_0_MEMBER_1_FILL"/>
</g>
</svg>
